<?xml version="1.0" encoding="UTF-8"?>
<svg version="1.1" xmlns="http://www.w3.org/2000/svg" width="1000" height="1000">
<path d="M0 0 C330 0 660 0 1000 0 C1000 330 1000 660 1000 1000 C670 1000 340 1000 0 1000 C0 670 0 340 0 0 Z " fill="#FEFCEC" transform="translate(0,0)"/>
<path d="M0 0 C91.08 0 182.16 0 276 0 C276 29.04 276 58.08 276 88 C217.26 88 158.52 88 98 88 C98 105.16 98 122.32 98 140 C143.21 140 188.42 140 235 140 C235 167.06 235 194.12 235 222 C189.79 222 144.58 222 98 222 C98 239.16 98 256.32 98 274 C158.39 274 218.78 274 281 274 C281 302.71 281 331.42 281 361 C188.27 361 95.54 361 0 361 C0 241.87 0 122.74 0 0 Z " fill="#385212" transform="translate(460,351)"/>
<path d="M0 0 C32.34 0 64.68 0 98 0 C98 119.13 98 238.26 98 361 C65.66 361 33.32 361 0 361 C0 241.87 0 122.74 0 0 Z " fill="#385213" transform="translate(280,351)"/>
</svg>
